# xmcd
#
# Track frame offsets:
#	150
#	17813
#	37876
#	55074
#	69713
#	83024
#	98661
#	113848
#	131627
#	148689
#	166719
#	183031
#	205267
#	219967
#	236917
#	254089
#	272667
#	290412
#	308389
#	322862
#	341788
#
# Disc length: 4743 seconds
#
# Revision: 0
# Processed by: cddbd v1.5.2PL0 Copyright (c) Steve Scherf et al.
# Submitted via: EasyCDDAExtractor 16.0.9.1
#
DISCID=27128515
DTITLE=Various Artist - Viva Charts Summer Hits
DYEAR=2001
DGENRE=Dance
TTITLE0=Silent Circle feat. MMX - Moonlight Affair 2001
TTITLE1=C. Aguilera - Lady Marmalade
TTITLE2=Scooter - We Need You
TTITLE3=Jasica Simpson - Irresistable
TTITLE4='Nsync - Pop
TTITLE5=Wheatus - A Little Respect
TTITLE6=Shaggy feat. E. Singleton - Sexy Girl
TTITLE7=Schiller met Hepper - Dream Of You
TTITLE8=Flying Steps - Breaking Down
TTITLE9=Sarah Conor feat. TQ - Let's Get Back To Bad Boy
TTITLE10=Barthezz - One The Movie
TTITLE11=Daft Punk - Digital Love
TTITLE12=Captain Jack - Iko Iko
TTITLE13=Backstreet Boys - More Then That
TTITLE14=Pulsedriver - Combodia
TTITLE15=Geri Halliwel - It's Raining Man
TTITLE16=ATB - Let U Go
TTITLE17=Debelah Morgan - I Remember
TTITLE18=Dario G. - Dream To Me
TTITLE19=Wycleff Jean - Perfect Genteman
TTITLE20=Ultra Nate - Get It Up
EXTD=
EXTT0=
EXTT1=
EXTT2=
EXTT3=
EXTT4=
EXTT5=
EXTT6=
EXTT7=
EXTT8=
EXTT9=
EXTT10=
EXTT11=
EXTT12=
EXTT13=
EXTT14=
EXTT15=
EXTT16=
EXTT17=
EXTT18=
EXTT19=
EXTT20=
PLAYORDER=
